<svg id="visual" viewBox="0 0 2560 1440" width="2560" height="1440" xmlns="http://www.w3.org/2000/svg" xmlns:xlink="http://www.w3.org/1999/xlink" version="1.1"><rect x="0" y="0" width="2560" height="1440" fill="#ffffff"></rect><path d="M0 364L61 385.7C122 407.3 244 450.7 365.8 507.7C487.7 564.7 609.3 635.3 731.2 651.2C853 667 975 628 1097 560.3C1219 492.7 1341 396.3 1463 394.8C1585 393.3 1707 486.7 1828.8 500.2C1950.7 513.7 2072.3 447.3 2194.2 430.7C2316 414 2438 447 2499 463.5L2560 480L2560 1441L2499 1441C2438 1441 2316 1441 2194.2 1441C2072.3 1441 1950.7 1441 1828.8 1441C1707 1441 1585 1441 1463 1441C1341 1441 1219 1441 1097 1441C975 1441 853 1441 731.2 1441C609.3 1441 487.7 1441 365.8 1441C244 1441 122 1441 61 1441L0 1441Z" fill="#fa7268"></path><path d="M0 806L61 767.3C122 728.7 244 651.3 365.8 605.8C487.7 560.3 609.3 546.7 731.2 583.2C853 619.7 975 706.3 1097 723.5C1219 740.7 1341 688.3 1463 677.3C1585 666.3 1707 696.7 1828.8 712.3C1950.7 728 2072.3 729 2194.2 727.3C2316 725.7 2438 721.3 2499 719.2L2560 717L2560 1441L2499 1441C2438 1441 2316 1441 2194.2 1441C2072.3 1441 1950.7 1441 1828.8 1441C1707 1441 1585 1441 1463 1441C1341 1441 1219 1441 1097 1441C975 1441 853 1441 731.2 1441C609.3 1441 487.7 1441 365.8 1441C244 1441 122 1441 61 1441L0 1441Z" fill="#ef5f67"></path><path d="M0 951L61 942C122 933 244 915 365.8 876.8C487.7 838.7 609.3 780.3 731.2 781.2C853 782 975 842 1097 884.2C1219 926.3 1341 950.7 1463 917C1585 883.3 1707 791.7 1828.8 740.3C1950.7 689 2072.3 678 2194.2 728C2316 778 2438 889 2499 944.5L2560 1000L2560 1441L2499 1441C2438 1441 2316 1441 2194.2 1441C2072.3 1441 1950.7 1441 1828.8 1441C1707 1441 1585 1441 1463 1441C1341 1441 1219 1441 1097 1441C975 1441 853 1441 731.2 1441C609.3 1441 487.7 1441 365.8 1441C244 1441 122 1441 61 1441L0 1441Z" fill="#e34c67"></path><path d="M0 1025L61 1017.8C122 1010.7 244 996.3 365.8 1016.3C487.7 1036.3 609.3 1090.7 731.2 1077.2C853 1063.7 975 982.3 1097 947C1219 911.7 1341 922.3 1463 957.2C1585 992 1707 1051 1828.8 1059.2C1950.7 1067.3 2072.3 1024.7 2194.2 1001.8C2316 979 2438 976 2499 974.5L2560 973L2560 1441L2499 1441C2438 1441 2316 1441 2194.2 1441C2072.3 1441 1950.7 1441 1828.8 1441C1707 1441 1585 1441 1463 1441C1341 1441 1219 1441 1097 1441C975 1441 853 1441 731.2 1441C609.3 1441 487.7 1441 365.8 1441C244 1441 122 1441 61 1441L0 1441Z" fill="#d53867"></path><path d="M0 1081L61 1086.7C122 1092.3 244 1103.7 365.8 1139.2C487.7 1174.7 609.3 1234.3 731.2 1251C853 1267.7 975 1241.3 1097 1230.8C1219 1220.3 1341 1225.7 1463 1240.8C1585 1256 1707 1281 1828.8 1268.2C1950.7 1255.3 2072.3 1204.7 2194.2 1203.7C2316 1202.7 2438 1251.3 2499 1275.7L2560 1300L2560 1441L2499 1441C2438 1441 2316 1441 2194.2 1441C2072.3 1441 1950.7 1441 1828.8 1441C1707 1441 1585 1441 1463 1441C1341 1441 1219 1441 1097 1441C975 1441 853 1441 731.2 1441C609.3 1441 487.7 1441 365.8 1441C244 1441 122 1441 61 1441L0 1441Z" fill="#c62368"></path></svg>